<?xml version="1.0" encoding="UTF-8" standalone="no"?>
<!DOCTYPE svg PUBLIC "-//W3C//DTD SVG 1.1//EN" "http://www.w3.org/Graphics/SVG/1.1/DTD/svg11.dtd">
<svg width="100%" height="100%" viewBox="0 0 473 309" version="1.1" xmlns="http://www.w3.org/2000/svg" xmlns:xlink="http://www.w3.org/1999/xlink" xml:space="preserve" xmlns:serif="http://www.serif.com/" style="fill-rule:evenodd;clip-rule:evenodd;stroke-linejoin:round;stroke-miterlimit:2;">
    <g id="Artboard1" transform="matrix(1,0,0,1,-466.53,-168.42)">
        <rect x="466.53" y="168.42" width="472.724" height="308.91" style="fill:none;"/>
        <g transform="matrix(0.872828,-0.488028,0.488028,0.872828,-66.5574,382.037)">
            <clipPath id="_clip1">
                <path d="M627.852,410.117C609.078,409.287 590.241,404.193 572.77,394.424C512.394,360.666 491.039,283.784 525.111,222.846C559.184,161.908 635.864,139.842 696.24,173.6C720.94,187.411 739.109,208.438 749.622,232.636L768.996,229.571L726.592,307.017L676.837,244.151L705.012,239.694C697.902,228.152 687.862,218.231 675.233,211.17C635.401,188.899 584.814,203.457 562.335,243.659C539.857,283.862 553.945,334.582 593.777,356.853C620.411,371.745 651.854,370.171 676.487,355.472C677.885,354.638 682.389,352.639 688.074,350.321C693.783,347.653 699.678,345.412 705.701,343.61C711.207,341.681 716.21,340.127 719.361,339.541L719.967,340.207C747.013,335.352 775.71,339.058 801.396,352.443L817.656,323.095L853.937,406.093L764.299,419.398L780.525,390.113C761.69,380.609 739.222,378.112 720.18,383.281C720.18,383.281 700.156,391.568 691.697,395.927C679.341,402.357 666.021,406.703 652.319,408.796L650.763,409.024L649.518,409.192L648,409.38L647.506,409.437C641.017,410.174 634.459,410.408 627.895,410.119L627.852,410.117ZM741.711,392.629L700.709,465.959L662.329,444.499L679.155,414.406C685.335,412.235 691.37,409.623 697.208,406.587C704.452,402.856 720.422,396.175 724.033,394.674C729.673,393.217 735.646,392.546 741.711,392.629ZM773.481,246.365C782.717,234.307 799.665,230.534 813.308,238.163L942.687,310.503L921.467,348.455L803.34,282.406L776.567,330.29C760.571,326.305 744.136,325.252 728.055,326.948L733.862,316.564C735.181,315.559 736.297,314.278 737.118,312.78L773.481,246.365Z"/>
            </clipPath>
            <g clip-path="url(#_clip1)">
                <rect x="440.909" y="141.639" width="526.057" height="342.968" style="fill:url(#_Linear2);"/>
                <path d="M978.966,141.639C978.966,135.012 973.593,129.639 966.966,129.639L440.909,129.639C434.282,129.639 428.909,135.012 428.909,141.639L428.909,484.607C428.909,491.235 434.282,496.607 440.909,496.607L966.966,496.607C973.593,496.607 978.966,491.235 978.966,484.607L978.966,141.639ZM966.966,141.639L440.909,141.639L440.909,484.607L966.966,484.607L966.966,141.639Z" style="fill:rgb(173,173,173);"/>
            </g>
        </g>
    </g>
    <defs>
        <linearGradient id="_Linear2" x1="0" y1="0" x2="1" y2="0" gradientUnits="userSpaceOnUse" gradientTransform="matrix(526.057,0,0,342.968,440.909,313.123)"><stop offset="0" style="stop-color:rgb(129,45,255);stop-opacity:1"/><stop offset="1" style="stop-color:rgb(255,186,96);stop-opacity:1"/></linearGradient>
    </defs>
</svg>
